<mxfile host="app.diagrams.net" agent="Mozilla/5.0 (Windows NT 10.0; Win64; x64) AppleWebKit/537.36 (KHTML, like Gecko) Chrome/131.0.0.0 Safari/537.36" version="25.0.3">
  <diagram name="หน้า-1" id="rV-GoSJcsXAb1C3pbNz0">
    <mxGraphModel dx="1313" dy="711" grid="1" gridSize="10" guides="1" tooltips="1" connect="1" arrows="1" fold="1" page="1" pageScale="1" pageWidth="827" pageHeight="1169" math="0" shadow="0">
      <root>
        <mxCell id="0" />
        <mxCell id="1" parent="0" />
        <mxCell id="k4Ju-XhTeMjvAxH35-dU-6" value="" style="rounded=0;whiteSpace=wrap;html=1;" vertex="1" parent="1">
          <mxGeometry x="17" y="70" width="793" height="720" as="geometry" />
        </mxCell>
        <mxCell id="k4Ju-XhTeMjvAxH35-dU-7" value="" style="endArrow=none;html=1;rounded=0;" edge="1" parent="1">
          <mxGeometry width="50" height="50" relative="1" as="geometry">
            <mxPoint x="20" y="120" as="sourcePoint" />
            <mxPoint x="810" y="120" as="targetPoint" />
          </mxGeometry>
        </mxCell>
        <mxCell id="k4Ju-XhTeMjvAxH35-dU-8" value="การโอนเงิน" style="text;html=1;align=center;verticalAlign=middle;whiteSpace=wrap;rounded=0;" vertex="1" parent="1">
          <mxGeometry x="384" y="80" width="60" height="30" as="geometry" />
        </mxCell>
        <mxCell id="k4Ju-XhTeMjvAxH35-dU-9" value="" style="endArrow=none;html=1;rounded=0;" edge="1" parent="1">
          <mxGeometry width="50" height="50" relative="1" as="geometry">
            <mxPoint x="20" y="157" as="sourcePoint" />
            <mxPoint x="810" y="157" as="targetPoint" />
          </mxGeometry>
        </mxCell>
        <mxCell id="k4Ju-XhTeMjvAxH35-dU-10" value="Customer" style="text;html=1;align=center;verticalAlign=middle;whiteSpace=wrap;rounded=0;" vertex="1" parent="1">
          <mxGeometry x="30" y="120" width="60" height="30" as="geometry" />
        </mxCell>
        <mxCell id="k4Ju-XhTeMjvAxH35-dU-11" value="Transfer monney" style="text;html=1;align=center;verticalAlign=middle;whiteSpace=wrap;rounded=0;" vertex="1" parent="1">
          <mxGeometry x="356" y="120" width="116" height="30" as="geometry" />
        </mxCell>
        <mxCell id="k4Ju-XhTeMjvAxH35-dU-12" value="Check Monney" style="text;html=1;align=center;verticalAlign=middle;whiteSpace=wrap;rounded=0;" vertex="1" parent="1">
          <mxGeometry x="660" y="120" width="90" height="30" as="geometry" />
        </mxCell>
        <mxCell id="k4Ju-XhTeMjvAxH35-dU-13" value="" style="endArrow=none;html=1;rounded=0;exitX=0.257;exitY=0.997;exitDx=0;exitDy=0;exitPerimeter=0;" edge="1" parent="1" source="k4Ju-XhTeMjvAxH35-dU-6">
          <mxGeometry width="50" height="50" relative="1" as="geometry">
            <mxPoint x="222" y="310" as="sourcePoint" />
            <mxPoint x="220" y="120" as="targetPoint" />
          </mxGeometry>
        </mxCell>
        <mxCell id="k4Ju-XhTeMjvAxH35-dU-16" value="" style="endArrow=none;html=1;rounded=0;exitX=0.726;exitY=1.018;exitDx=0;exitDy=0;exitPerimeter=0;" edge="1" parent="1" source="k4Ju-XhTeMjvAxH35-dU-6">
          <mxGeometry width="50" height="50" relative="1" as="geometry">
            <mxPoint x="370" y="290" as="sourcePoint" />
            <mxPoint x="590" y="120" as="targetPoint" />
          </mxGeometry>
        </mxCell>
        <mxCell id="k4Ju-XhTeMjvAxH35-dU-17" value="" style="rounded=0;whiteSpace=wrap;html=1;" vertex="1" parent="1">
          <mxGeometry y="1160" width="793" height="400" as="geometry" />
        </mxCell>
        <mxCell id="k4Ju-XhTeMjvAxH35-dU-18" value="" style="endArrow=none;html=1;rounded=0;" edge="1" parent="1">
          <mxGeometry width="50" height="50" relative="1" as="geometry">
            <mxPoint x="3" y="1210" as="sourcePoint" />
            <mxPoint x="793" y="1210" as="targetPoint" />
          </mxGeometry>
        </mxCell>
        <mxCell id="k4Ju-XhTeMjvAxH35-dU-19" value="การโอนเงิน" style="text;html=1;align=center;verticalAlign=middle;whiteSpace=wrap;rounded=0;" vertex="1" parent="1">
          <mxGeometry x="367" y="1170" width="60" height="30" as="geometry" />
        </mxCell>
        <mxCell id="k4Ju-XhTeMjvAxH35-dU-20" value="" style="endArrow=none;html=1;rounded=0;" edge="1" parent="1">
          <mxGeometry width="50" height="50" relative="1" as="geometry">
            <mxPoint x="3" y="1247" as="sourcePoint" />
            <mxPoint x="793" y="1247" as="targetPoint" />
          </mxGeometry>
        </mxCell>
        <mxCell id="k4Ju-XhTeMjvAxH35-dU-21" value="Customer" style="text;html=1;align=center;verticalAlign=middle;whiteSpace=wrap;rounded=0;" vertex="1" parent="1">
          <mxGeometry x="13" y="1210" width="60" height="30" as="geometry" />
        </mxCell>
        <mxCell id="k4Ju-XhTeMjvAxH35-dU-22" value="Transfer monney" style="text;html=1;align=center;verticalAlign=middle;whiteSpace=wrap;rounded=0;" vertex="1" parent="1">
          <mxGeometry x="339" y="1210" width="116" height="30" as="geometry" />
        </mxCell>
        <mxCell id="k4Ju-XhTeMjvAxH35-dU-23" value="Check Monney" style="text;html=1;align=center;verticalAlign=middle;whiteSpace=wrap;rounded=0;" vertex="1" parent="1">
          <mxGeometry x="643" y="1210" width="90" height="30" as="geometry" />
        </mxCell>
        <mxCell id="k4Ju-XhTeMjvAxH35-dU-24" value="" style="endArrow=none;html=1;rounded=0;exitX=0.257;exitY=0.997;exitDx=0;exitDy=0;exitPerimeter=0;" edge="1" parent="1" source="k4Ju-XhTeMjvAxH35-dU-17">
          <mxGeometry width="50" height="50" relative="1" as="geometry">
            <mxPoint x="205" y="1400" as="sourcePoint" />
            <mxPoint x="203" y="1210" as="targetPoint" />
          </mxGeometry>
        </mxCell>
        <mxCell id="k4Ju-XhTeMjvAxH35-dU-25" value="" style="endArrow=none;html=1;rounded=0;exitX=0.726;exitY=1.018;exitDx=0;exitDy=0;exitPerimeter=0;" edge="1" parent="1" source="k4Ju-XhTeMjvAxH35-dU-17">
          <mxGeometry width="50" height="50" relative="1" as="geometry">
            <mxPoint x="353" y="1380" as="sourcePoint" />
            <mxPoint x="573" y="1210" as="targetPoint" />
          </mxGeometry>
        </mxCell>
        <mxCell id="k4Ju-XhTeMjvAxH35-dU-26" value="" style="ellipse;html=1;shape=startState;fillColor=#000000;strokeColor=#ff0000;" vertex="1" parent="1">
          <mxGeometry x="80" y="170" width="30" height="30" as="geometry" />
        </mxCell>
        <mxCell id="k4Ju-XhTeMjvAxH35-dU-27" value="" style="edgeStyle=orthogonalEdgeStyle;html=1;verticalAlign=bottom;endArrow=open;endSize=8;strokeColor=#ff0000;rounded=0;" edge="1" source="k4Ju-XhTeMjvAxH35-dU-26" parent="1">
          <mxGeometry relative="1" as="geometry">
            <mxPoint x="95" y="260" as="targetPoint" />
          </mxGeometry>
        </mxCell>
        <mxCell id="k4Ju-XhTeMjvAxH35-dU-31" value="" style="edgeStyle=orthogonalEdgeStyle;rounded=0;orthogonalLoop=1;jettySize=auto;html=1;" edge="1" parent="1" source="k4Ju-XhTeMjvAxH35-dU-28" target="k4Ju-XhTeMjvAxH35-dU-30">
          <mxGeometry relative="1" as="geometry" />
        </mxCell>
        <mxCell id="k4Ju-XhTeMjvAxH35-dU-28" value="ระบุบัญชีปลายทางและจำนวนเงิน" style="rounded=1;arcSize=10;whiteSpace=wrap;html=1;align=center;" vertex="1" parent="1">
          <mxGeometry x="45" y="260" width="100" height="40" as="geometry" />
        </mxCell>
        <mxCell id="k4Ju-XhTeMjvAxH35-dU-33" value="" style="edgeStyle=orthogonalEdgeStyle;rounded=0;orthogonalLoop=1;jettySize=auto;html=1;" edge="1" parent="1" source="k4Ju-XhTeMjvAxH35-dU-30" target="k4Ju-XhTeMjvAxH35-dU-32">
          <mxGeometry relative="1" as="geometry" />
        </mxCell>
        <mxCell id="k4Ju-XhTeMjvAxH35-dU-35" value="" style="edgeStyle=orthogonalEdgeStyle;rounded=0;orthogonalLoop=1;jettySize=auto;html=1;" edge="1" parent="1" source="k4Ju-XhTeMjvAxH35-dU-30" target="k4Ju-XhTeMjvAxH35-dU-34">
          <mxGeometry relative="1" as="geometry">
            <Array as="points">
              <mxPoint x="415" y="400" />
            </Array>
          </mxGeometry>
        </mxCell>
        <mxCell id="k4Ju-XhTeMjvAxH35-dU-30" value="" style="rhombus;whiteSpace=wrap;html=1;rounded=1;arcSize=10;" vertex="1" parent="1">
          <mxGeometry x="375" y="240" width="80" height="80" as="geometry" />
        </mxCell>
        <mxCell id="k4Ju-XhTeMjvAxH35-dU-32" value="เช็คจำนวนเงินในบัญชี" style="whiteSpace=wrap;html=1;rounded=1;arcSize=10;" vertex="1" parent="1">
          <mxGeometry x="660" y="250" width="120" height="60" as="geometry" />
        </mxCell>
        <mxCell id="k4Ju-XhTeMjvAxH35-dU-34" value="alert&amp;nbsp;" style="whiteSpace=wrap;html=1;rounded=1;arcSize=10;" vertex="1" parent="1">
          <mxGeometry x="45" y="370" width="120" height="60" as="geometry" />
        </mxCell>
      </root>
    </mxGraphModel>
  </diagram>
</mxfile>
